<svg id="Layer_1" data-name="Layer 1" xmlns="http://www.w3.org/2000/svg" width="1684.79" height="267.89" viewBox="0 0 1684.79 267.89">
  <defs>
    <style>
      .cls-1 {
        fill: #112e51;
      }

      .cls-2 {
        fill: #539090;
      }
    </style>
  </defs>
  <g>
    <g>
      <path class="cls-1" d="M525.84,347.79c-15.9,0-22.23,4-29.14,16.31-18.16,32.46-37.8,64.1-59.08,99.8-8.24-13.91-14-25.67-21.77-35.9-4.07-5.36-11.67-11.37-17.73-11.43q-117.66-1.11-235.32.07h-5.48A13.36,13.36,0,0,0,144,428.59c0,.15-.06.29-.08.44a9.87,9.87,0,0,0,1.23,6.57,13.36,13.36,0,0,0,12.13,7.76H305a12,12,0,0,1,12,12h0a12,12,0,0,1-12,12H227.25a14,14,0,0,0-14,14h0a14,14,0,0,0,14,14h102a12.25,12.25,0,0,1,12.25,12.25h0a12.25,12.25,0,0,1-12.25,12.26H131a13.36,13.36,0,0,0-13.25,11.67,5.49,5.49,0,0,0-.11.8,5.61,5.61,0,0,0,0,.58v.32h0A13.36,13.36,0,0,0,131,546.61H298.44A19.51,19.51,0,0,1,318,566.1h0a19.51,19.51,0,0,1-19.51,19.5h-44.5A13.37,13.37,0,0,0,240.58,599v0h0a13.36,13.36,0,0,0,13.36,13.36H354.83q.63,0,1.26-.06h12.75V474.79l3.87-1.09L438,580l64.25-106.29,4.46,1.25V611.31h65.82V348Z" transform="translate(-117.61 -347.79)"/>
      <path class="cls-1" d="M777.26,533.94c0,49-34.22,81.44-86.59,81.44s-86.6-32.4-86.6-81.44c0-49.36,34.52-82.05,86.6-82.05S777.26,484.58,777.26,533.94Zm-114.75,0c0,24.52,9.69,37.54,28.16,37.54s28.15-13,28.15-37.54c0-24.83-10-38.15-28.15-38.15S662.51,509.11,662.51,533.94Z" transform="translate(-117.61 -347.79)"/>
      <path class="cls-1" d="M809,455.52h38.45l11.2,26.34c8.18-16.05,27.25-30,54.5-30,35.12,0,55.1,22.7,55.1,65.39v95.07H910.77V527c0-18.77-7.27-28.46-21.5-28.46-14.83,0-22.7,10.3-22.7,30v83.86H809Z" transform="translate(-117.61 -347.79)"/>
      <path class="cls-1" d="M1058.51,408.89c0,15.14-10.9,27.56-28.76,27.56S1001,424,1001,408.89c0-15.44,10.9-27.85,28.76-27.85S1058.51,393.45,1058.51,408.89Zm0,46.63V612.35H1001V455.52Z" transform="translate(-117.61 -347.79)"/>
      <path class="cls-1" d="M1082.43,500.93v-33c27.86-5.75,40.27-17.56,46.33-45.11H1163v32.7h53v45.41h-53V552.1c0,11.2,5.14,17.26,15.44,17.26,8.78,0,18.77-4.54,29.67-14.23l23.92,40c-20.89,13.93-40.88,20.29-64.49,20.29-40,0-62.07-18.47-62.07-52.38V500.93Z" transform="translate(-117.61 -347.79)"/>
      <path class="cls-1" d="M1244.71,571.48c0-33.61,27.55-51.47,65.7-51.47h23v-9.69c0-11.51-5.75-17.56-22.71-17.56-15.14,0-32.7,5.15-45.11,12.72L1247.74,467c19.37-9.38,44.81-14.83,69-14.83,46.62,0,72.36,20.28,72.36,57.83V612.35h-37.24L1342.2,589c-10.9,17.56-28.16,26.64-50,26.64C1262.88,615.68,1244.71,599,1244.71,571.48Zm55.71-8.18c0,8.78,4.84,13.33,12.71,13.33,10.9,0,20.29-9.69,20.29-27.25v-3.64h-9.08C1310.11,545.74,1300.42,550.89,1300.42,563.3Z" transform="translate(-117.61 -347.79)"/>
    </g>
    <g>
      <path class="cls-2" d="M1487.52,612.35V401h142V453.4h-81.44v28.16H1625V529.7h-76.9V560h82.65v52.38Z" transform="translate(-117.61 -347.79)"/>
      <path class="cls-2" d="M1652.83,500.93v-33c27.85-5.75,40.27-17.56,46.32-45.11h34.21v32.7h53v45.41h-53V552.1c0,11.2,5.15,17.26,15.45,17.26,8.78,0,18.77-4.54,29.67-14.23l23.91,40c-20.89,13.93-40.87,20.29-64.48,20.29-40,0-62.07-18.47-62.07-52.38V500.93Z" transform="translate(-117.61 -347.79)"/>
    </g>
  </g>
</svg>
