<svg id="Layer_1" data-name="Layer 1" xmlns="http://www.w3.org/2000/svg" viewBox="0 0 1410.72 820.67"><path d="M1520.62,130c-49.3,0-68.94,12.26-90.37,50.57-56.33,100.65-117.22,198.79-183.2,309.51-25.57-43.15-43.4-79.62-67.52-111.36-12.63-16.61-36.21-35.24-55-35.42q-364.84-3.48-729.73.21h-17a41.44,41.44,0,0,0-41.2,37.06,13.32,13.32,0,0,0-.23,1.36c-.93,8.74.58,15.35,3.81,20.36a41.42,41.42,0,0,0,37.62,24.09H835.89A37.13,37.13,0,0,1,873,463.5h0a37.13,37.13,0,0,1-37.13,37.14H594.66a43.51,43.51,0,0,0-43.51,43.51h0a43.51,43.51,0,0,0,43.51,43.51H911a38,38,0,0,1,38,38h0a38,38,0,0,1-38,38H296.09A41.43,41.43,0,0,0,255,699.87a13.45,13.45,0,0,0-.34,2.47,15.52,15.52,0,0,0,0,1.8c0,.32,0,.64,0,1h0a41.43,41.43,0,0,0,41.43,41.43H815.43A60.48,60.48,0,0,1,875.91,807h0a60.48,60.48,0,0,1-60.48,60.48h-138A41.44,41.44,0,0,0,636,909h0a41.43,41.43,0,0,0,41.44,41.43H990.29c1.32,0,2.62-.07,3.9-.19q19.69,0,39.56,0V523.84l12-3.38,202.45,329.63,199.25-329.6,13.84,3.86V947.19h204.11V130.72Z" transform="translate(-254.64 -129.71)"/><rect x="433.23" width="395.7" height="82.87" rx="41.43"/><rect x="135.15" y="737.81" width="191.72" height="82.87" rx="41.43"/></svg>